HIERARCHY
ROOT Hips
{
	OFFSET -0.001795 -0.223333 0.028219
	CHANNELS 6 Xposition Yposition Zposition Zrotation Yrotation Xrotation 
	JOINT LeftUpLeg
	{
		OFFSET 0.069520 -0.091406 -0.006815
		CHANNELS 3 Zrotation Yrotation Xrotation
		JOINT LeftLeg
		{
			OFFSET 0.034277 -0.375199 -0.004496
			CHANNELS 3 Zrotation Yrotation Xrotation
			JOINT LeftFoot
			{
				OFFSET -0.013596 -0.397961 -0.043693
				CHANNELS 3 Zrotation Yrotation Xrotation
				JOINT LeftToe
				{
					OFFSET 0.026358 -0.055791 0.119288
					CHANNELS 3 Zrotation Yrotation Xrotation
					End Site
					{
						OFFSET 0.000000 0.000000 0.000000
					}
				}
			}
		}
	}
	JOINT RightUpLeg
	{
		OFFSET -0.067670 -0.090522 -0.004320
		CHANNELS 3 Zrotation Yrotation Xrotation
		JOINT RightLeg
		{
			OFFSET -0.038290 -0.382569 -0.008850
			CHANNELS 3 Zrotation Yrotation Xrotation
			JOINT RightFoot
			{
				OFFSET 0.015774 -0.398415 -0.042312
				CHANNELS 3 Zrotation Yrotation Xrotation
				JOINT RightToe
				{
					OFFSET -0.025372 -0.048144 0.123348
					CHANNELS 3 Zrotation Yrotation Xrotation
					End Site
					{
						OFFSET 0.000000 0.000000 0.000000
					}
				}
			}
		}
	}
	JOINT Spine
	{
		OFFSET -0.002533 0.108963 -0.026696
		CHANNELS 3 Zrotation Yrotation Xrotation
		JOINT Spine1
		{
			OFFSET 0.005487 0.135180 0.001092
			CHANNELS 3 Zrotation Yrotation Xrotation
			JOINT Spine2
			{
				OFFSET 0.001457 0.052922 0.025425
				CHANNELS 3 Zrotation Yrotation Xrotation
				JOINT Neck
				{
					OFFSET -0.002778 0.213870 -0.042857
					CHANNELS 3 Zrotation Yrotation Xrotation
					JOINT Head
					{
						OFFSET 0.005152 0.064970 0.051349
						CHANNELS 3 Zrotation Yrotation Xrotation
						End Site
						{
							OFFSET 0.000000 0.000000 0.000000
						}
					}
				}
				JOINT LeftShoulder
				{
					OFFSET 0.078845 0.121749 -0.034090
					CHANNELS 3 Zrotation Yrotation Xrotation
					JOINT LeftArm
					{
						OFFSET 0.090977 0.030469 -0.008868
						CHANNELS 3 Zrotation Yrotation Xrotation
						JOINT LeftForeArm
						{
							OFFSET 0.259612 -0.012772 -0.027456
							CHANNELS 3 Zrotation Yrotation Xrotation
							JOINT LeftHand
							{
								OFFSET 0.249234 0.008986 -0.001171
								CHANNELS 3 Zrotation Yrotation Xrotation
								End Site
								{
									OFFSET 0.000000 0.000000 0.000000
								}
							}
						}
					}
				}
				JOINT RightShoulder
				{
					OFFSET -0.081759 0.118833 -0.038615
					CHANNELS 3 Zrotation Yrotation Xrotation
					JOINT RightArm
					{
						OFFSET -0.096012 0.032551 -0.009143
						CHANNELS 3 Zrotation Yrotation Xrotation
						JOINT RightForeArm
						{
							OFFSET -0.253742 -0.013329 -0.021401
							CHANNELS 3 Zrotation Yrotation Xrotation
							JOINT RightHand
							{
								OFFSET -0.255298 0.007772 -0.005559
								CHANNELS 3 Zrotation Yrotation Xrotation
								End Site
								{
									OFFSET 0.000000 0.000000 0.000000
								}
							}
						}
					}
				}
			}
		}
	}
}
MOTION
Frames: 7
Frame Time: 0.050000
0.000000 0.759303 0.000000 -4.902674 7.680568 -5.121180 13.555895 -0.207909 -30.855104 -14.532909 5.609678 71.770026 11.029837 23.006916 -13.634792 0.000000 0.000000 0.000000 -13.902526 -3.029377 -47.774375 12.561635 -13.019853 81.438656 -6.543999 -15.265762 -4.751930 0.000000 0.000000 0.000000 -4.778795 -0.892265 32.568797 6.710519 -0.635425 -28.278032 2.076439 -1.212114 25.612682 0.640932 1.199304 -19.056728 0.000000 0.000000 0.000000 -11.875851 8.937017 -5.154677 -27.050514 -10.567967 -2.439053 153.594302 -17.063733 -58.619192 0.000000 0.000000 0.000000 -1.597257 -4.376611 -1.527144 18.416836 17.328308 -1.189260 -125.972433 5.539683 -2.304365 0.000000 0.000000 0.000000 
-0.024627 0.772084 0.025039 -6.022894 10.455552 -3.275526 16.724222 0.106634 -30.360534 -13.429941 3.387828 69.888713 8.631916 15.983350 -15.455630 0.000000 0.000000 0.000000 -16.088619 -4.823679 -47.796470 11.969346 -11.885454 73.176894 -7.608818 -18.051869 -2.963765 0.000000 0.000000 0.000000 -2.812605 -1.568126 30.691081 7.237865 -0.477290 -31.951728 2.042489 -3.468695 28.599005 -0.923817 2.071471 -17.759469 0.000000 0.000000 0.000000 -12.727024 6.980113 -4.291434 -28.766075 -13.219407 -2.250373 152.780656 -22.600239 -71.730006 0.000000 0.000000 0.000000 -1.470006 -6.699541 -2.363447 14.951182 17.849542 -1.272253 -127.661447 9.337762 -11.015302 0.000000 0.000000 0.000000 
-0.051537 0.788773 0.053027 -5.504325 9.083119 -3.982597 18.799214 0.579082 -24.248404 -11.417087 2.162893 65.069928 6.508745 9.604993 -14.608772 0.000000 0.000000 0.000000 -15.578793 -3.790833 -44.721524 7.506961 -6.177396 64.854930 -4.935149 -11.695275 -1.680127 0.000000 0.000000 0.000000 -1.795365 -1.403347 26.990416 8.575368 -1.143859 -26.742577 -0.710820 -1.241266 28.582068 1.363949 1.034069 -21.242454 0.000000 0.000000 0.000000 -14.973235 6.303200 -4.613182 -24.784637 -15.891196 -1.541200 150.025760 -26.562469 -77.143605 0.000000 0.000000 0.000000 0.701020 -4.629483 -1.712761 10.706008 18.922730 -1.272672 -127.808668 6.499648 -5.584761 0.000000 0.000000 0.000000 
-0.081075 0.801408 0.084424 -5.631650 10.950817 -3.637555 19.915712 0.401173 -21.060291 -8.546202 -0.594358 61.503013 5.379903 6.224220 -13.695423 0.000000 0.000000 0.000000 -15.872291 -3.956089 -41.667237 4.380285 -3.386080 54.329958 -0.640124 -4.101110 7.293126 0.000000 0.000000 0.000000 -0.550047 -1.712489 25.835094 7.742235 -0.848631 -27.772043 -1.194771 -3.954789 29.758766 0.615644 1.222415 -21.199236 0.000000 0.000000 0.000000 -13.467926 6.826235 -4.334595 -26.205776 -15.265302 -1.830226 151.076455 -31.144175 -87.615987 0.000000 0.000000 0.000000 -1.935184 -3.078296 -1.082837 10.918069 19.099862 -1.221789 -124.878369 8.962502 -10.772853 0.000000 0.000000 0.000000 
-0.114492 0.810741 0.117920 -4.240865 12.406981 -2.257253 20.056620 0.138641 -18.966872 -6.760553 -1.911836 57.250405 4.784560 6.257817 -9.616911 0.000000 0.000000 0.000000 -15.500116 -3.750193 -39.283051 1.989203 -1.949954 50.438541 2.353293 2.059870 7.687284 0.000000 0.000000 0.000000 -1.079157 -1.518262 24.455104 7.251867 -0.725175 -27.258473 -1.081468 -4.746074 28.178677 0.767556 1.054766 -20.288771 0.000000 0.000000 0.000000 -14.758931 5.366207 -3.860249 -22.942092 -15.793736 -1.577692 149.676710 -31.675981 -86.448364 0.000000 0.000000 0.000000 -1.980110 0.173482 0.043588 8.477486 18.729071 -1.175553 -122.692490 8.492016 -10.209160 0.000000 0.000000 0.000000 
-0.149189 0.814081 0.150560 -3.427255 14.148114 -1.920403 20.290432 -0.095656 -17.252223 -5.200601 -3.221663 55.176543 5.538799 9.032672 -7.064896 0.000000 0.000000 0.000000 -14.984289 -3.751710 -38.224977 0.761170 -1.802780 52.484032 4.692402 8.830412 4.192039 0.000000 0.000000 0.000000 -0.585269 -1.702639 24.388863 6.858659 -0.615023 -27.048284 -2.099280 -6.314804 27.837171 0.177809 1.372872 -20.815953 0.000000 0.000000 0.000000 -15.294864 5.649038 -4.005119 -22.056701 -15.582848 -1.575636 147.808582 -30.314047 -80.522255 0.000000 0.000000 0.000000 -0.900942 1.069255 0.374284 7.008469 24.534759 -1.288260 -121.608279 10.549235 -13.540243 0.000000 0.000000 0.000000 
-0.181603 0.822654 0.178112 -3.167663 15.869746 -1.291612 21.877589 -0.254777 -16.360715 -4.914899 -3.420982 52.423046 5.361856 9.129214 -5.402560 0.000000 0.000000 0.000000 -13.662021 -3.543904 -38.246822 -0.034202 -1.943256 54.437313 6.746851 13.166042 4.531677 0.000000 0.000000 0.000000 0.049245 -1.961508 24.622704 5.326087 -0.219412 -27.226992 -1.088121 -6.854540 26.780744 -1.134285 2.301632 -21.102064 0.000000 0.000000 0.000000 -16.346991 3.824889 -3.329198 -20.792341 -15.929898 -1.444560 145.059680 -29.795348 -75.300991 0.000000 0.000000 0.000000 -0.908515 2.147426 0.745999 8.401428 24.698665 -1.179483 -121.875153 11.232164 -13.902358 0.000000 0.000000 0.000000 
